<?xml version="1.0" encoding="UTF-8" standalone="no"?>
<!DOCTYPE svg PUBLIC "-//W3C//DTD SVG 1.1//EN" "http://www.w3.org/Graphics/SVG/1.1/DTD/svg11.dtd">
<svg width="100%" height="100%" viewBox="0 0 1080 230" version="1.1" xmlns="http://www.w3.org/2000/svg" xmlns:xlink="http://www.w3.org/1999/xlink" xml:space="preserve" xmlns:serif="http://www.serif.com/" style="fill-rule:evenodd;clip-rule:evenodd;stroke-linejoin:round;stroke-miterlimit:2;">
    <g transform="matrix(1,0,0,1,0,-1690)">
        <path id="navbar" d="M637.721,1730.62C653.305,1705.43 680.814,1690.11 710.433,1690.11C710.433,1690 710.433,1690 710.433,1690L1080,1690L1080,1920L0,1920L0,1690L370.526,1690C399.733,1690 426.837,1705.19 442.077,1730.11C444.088,1733.56 446.354,1736.85 448.779,1740C469.81,1767.36 502.861,1785 540,1785C577.139,1785 610.19,1767.36 631.221,1740C633.537,1736.99 635.707,1733.86 637.721,1730.62Z" style="fill:rgb(255,255,255);"/>
    </g>
</svg>
