<svg width="30" height="30" viewBox="0 0 30 30" fill="none" xmlns="http://www.w3.org/2000/svg">
<rect x="0.5" y="0.5" width="29" height="29" rx="4.5" fill="black" stroke="black"/>
<path d="M15 7.50003C15.2487 7.50003 15.4871 7.5988 15.6629 7.77462C15.8388 7.95043 15.9375 8.18889 15.9375 8.43753V14.0625H21.5625C21.8112 14.0625 22.0496 14.1613 22.2254 14.3371C22.4013 14.5129 22.5 14.7514 22.5 15C22.5 15.2487 22.4013 15.4871 22.2254 15.6629C22.0496 15.8388 21.8112 15.9375 21.5625 15.9375H15.9375V21.5625C15.9375 21.8112 15.8388 22.0496 15.6629 22.2254C15.4871 22.4013 15.2487 22.5 15 22.5C14.7514 22.5 14.5129 22.4013 14.3371 22.2254C14.1613 22.0496 14.0625 21.8112 14.0625 21.5625V15.9375H8.43753C8.18889 15.9375 7.95043 15.8388 7.77462 15.6629C7.5988 15.4871 7.50003 15.2487 7.50003 15C7.50003 14.7514 7.5988 14.5129 7.77462 14.3371C7.95043 14.1613 8.18889 14.0625 8.43753 14.0625H14.0625V8.43753C14.0625 8.18889 14.1613 7.95043 14.3371 7.77462C14.5129 7.5988 14.7514 7.50003 15 7.50003Z" fill="white"/>
</svg>
