<svg width="24" height="22" viewBox="0 0 24 22" fill="none" xmlns="http://www.w3.org/2000/svg">
<g clip-path="url(#clip0)">
<path d="M22.0041 7.14583L15.9166 6.25833L13.1958 0.741666C12.7083 -0.241667 11.2958 -0.254167 10.8041 0.741666L8.08331 6.25833L1.99581 7.14583C0.904146 7.30417 0.466646 8.65 1.25831 9.42083L5.66248 13.7125L4.62081 19.775C4.43331 20.8708 5.58748 21.6917 6.55415 21.1792L12 18.3167L17.4458 21.1792C18.4125 21.6875 19.5666 20.8708 19.3791 19.775L18.3375 13.7125L22.7416 9.42083C23.5333 8.65 23.0958 7.30417 22.0041 7.14583ZM16.1916 13.0125L17.1791 18.7792L12 16.0583L6.82081 18.7792L7.80831 13.0125L3.61665 8.92917L9.40831 8.0875L12 2.8375L14.5916 8.0875L20.3833 8.92917L16.1916 13.0125Z" fill="white"/>
</g>
<defs>
<clipPath id="clip0">
<rect width="24" height="21.3333" fill="white"/>
</clipPath>
</defs>
</svg>
