<svg width="24" height="24" viewBox="0 0 24 24" fill="none" xmlns="http://www.w3.org/2000/svg">
<path d="M13 2C12.7348 2 12.4804 2.10536 12.2929 2.29289C12.1054 2.48043 12 2.73478 12 3V11C12 11.2652 12.1054 11.5196 12.2929 11.7071C12.4804 11.8946 12.7348 12 13 12H21C21.2652 12 21.5196 11.8946 21.7071 11.7071C21.8946 11.5196 22 11.2652 22 11C22 8.61305 21.0518 6.32387 19.364 4.63604C17.6761 2.94821 15.3869 2 13 2ZM14 10V4.07C15.4962 4.28561 16.8824 4.97978 17.9513 6.04868C19.0202 7.11759 19.7144 8.50379 19.93 10H14Z" fill="black"/>
<path d="M20.82 14.06C20.6959 14.0156 20.5643 13.9963 20.4327 14.0029C20.3011 14.0096 20.1721 14.0422 20.0532 14.0989C19.9342 14.1556 19.8277 14.2352 19.7396 14.3332C19.6515 14.4312 19.5837 14.5457 19.54 14.67C19.0893 15.9439 18.3234 17.0829 17.3135 17.9808C16.3036 18.8786 15.0828 19.506 13.7648 19.8045C12.4469 20.1029 11.0749 20.0626 9.77675 19.6874C8.4786 19.3123 7.29664 18.6144 6.34114 17.6589C5.38564 16.7034 4.68774 15.5214 4.31255 14.2232C3.93736 12.9251 3.89711 11.5531 4.19555 10.2352C4.49398 8.91724 5.12139 7.6964 6.01923 6.68652C6.91707 5.67665 8.05608 4.91065 9.33 4.46C9.58063 4.37248 9.78622 4.18898 9.90156 3.94987C10.0169 3.71076 10.0325 3.43563 9.945 3.185C9.85748 2.93437 9.67398 2.72877 9.43487 2.61344C9.19576 2.4981 8.92063 2.48248 8.67 2.57C7.07704 3.13278 5.65263 4.08996 4.52971 5.35222C3.4068 6.61448 2.62198 8.14065 2.24852 9.78831C1.87506 11.436 1.92512 13.1514 2.39404 14.7744C2.86296 16.3975 3.73544 17.8753 4.93006 19.0699C6.12468 20.2646 7.60249 21.137 9.22556 21.606C10.8486 22.0749 12.564 22.1249 14.2117 21.7515C15.8593 21.378 17.3855 20.5932 18.6478 19.4703C19.91 18.3474 20.8672 16.923 21.43 15.33C21.5165 15.0807 21.5009 14.8072 21.3866 14.5693C21.2724 14.3314 21.0687 14.1484 20.82 14.06Z" fill="black"/>
</svg>
