<svg width="24" height="24" viewBox="0 0 24 24" fill="none" xmlns="http://www.w3.org/2000/svg">
<path d="M3 14H5V21C5 21.2652 5.10535 21.5196 5.29289 21.7071C5.48043 21.8946 5.73478 22 6 22H18C18.2652 22 18.5196 21.8946 18.7071 21.7071C18.8946 21.5196 19 21.2652 19 21V14H21C21.1933 14.0002 21.3824 13.9442 21.5445 13.839C21.7066 13.7337 21.8346 13.5836 21.913 13.407C21.992 13.2305 22.0179 13.0348 21.9878 12.8438C21.9576 12.6527 21.8725 12.4746 21.743 12.331L12.743 2.331C12.364 1.909 11.636 1.909 11.257 2.331L2.257 12.331C2.12769 12.4747 2.04279 12.6527 2.01256 12.8436C1.98234 13.0345 2.00809 13.2301 2.0867 13.4067C2.16531 13.5833 2.2934 13.7333 2.45549 13.8386C2.61758 13.9439 2.80671 13.9999 3 14ZM8.653 11.641C9.06923 11.2301 9.63059 10.9996 10.2155 10.9996C10.8004 10.9996 11.3618 11.2301 11.778 11.641L12.002 11.861L12.225 11.641C12.6414 11.23 13.2029 10.9996 13.788 10.9996C14.3731 10.9996 14.9346 11.23 15.351 11.641C15.5576 11.8397 15.7219 12.0781 15.8342 12.3419C15.9464 12.6056 16.0043 12.8893 16.0043 13.176C16.0043 13.4626 15.9464 13.7464 15.8342 14.0101C15.7219 14.2739 15.5576 14.5123 15.351 14.711L12.002 18L8.653 14.711C8.44642 14.5123 8.28208 14.2739 8.16982 14.0101C8.05757 13.7464 7.99971 13.4626 7.99971 13.176C7.99971 12.8893 8.05757 12.6056 8.16982 12.3419C8.28208 12.0781 8.44642 11.8397 8.653 11.641Z" fill="black"/>
</svg>
